<svg fill="#9550ff" width="64px" height="64px" viewBox="0 0 32.00 32.00" id="Outlined" xmlns="http://www.w3.org/2000/svg" stroke="#9550ff" stroke-width="0.00032">
    <g id="SVGRepo_bgCarrier" stroke-width="0"></g>
    <g id="SVGRepo_tracerCarrier" stroke-linecap="round" stroke-linejoin="round" stroke="#CCCCCC" stroke-width="0.64"></g>
    <g id="SVGRepo_iconCarrier">
        <title></title>
        <g id="Fill">
            <path d="M28.11,13.32,2.13,2.1,7.44,14.85a3.05,3.05,0,0,1,0,2.3L2.13,29.88l26-11a3,3,0,0,0,0-5.51ZM27.31,17,5.87,26.12l3.41-8.2A4.42,4.42,0,0,0,9.56,17H20V15H9.56a4.42,4.42,0,0,0-.28-.92L5.87,5.9l21.45,9.25a1,1,0,0,1,.6.92A1,1,0,0,1,27.31,17Z"></path>
        </g>
    </g>
</svg>
